<svg width="131" height="130" viewBox="0 0 131 130" fill="none" xmlns="http://www.w3.org/2000/svg">
<g clip-path="url(#clip0_293_717)">
<path d="M8.9 -0.5H122.6C127.2 -0.5 131 3.6 131 8.6V120.9C131 125.9 127.3 130 122.6 130H8.9C4.3 130 0.5 125.9 0.5 120.9V8.6C0.5 3.6 4.3 -0.5 8.9 -0.5Z" fill="#E60F05"/>
<path d="M92.6 82.9C91.5 81.8 90.2 81.1 88.7 80.8C87.2 80.5 85.7 80.7 84.3 81.2C82.9 81.8 81.7 82.7 80.9 84C80.1 85.2 79.6 86.7 79.6 88.2C79.6 89.2 79.8 90.2 80.2 91.1C80.6 92 81.1 92.9 81.8 93.6C82.5 94.3 83.3 94.9 84.3 95.2C85.2 95.6 86.2 95.8 87.2 95.8C88.7 95.8 90.2 95.4 91.4 94.5C92.6 93.7 93.6 92.5 94.2 91.1C94.8 89.7 94.9 88.2 94.6 86.7C94.4 85.3 93.7 84 92.6 82.9ZM87.3 92C85.3 92 83.6 90.3 83.6 88.3C83.6 86.3 85.3 84.6 87.3 84.6C89.3 84.6 91.1 86.3 91.1 88.3C91.1 90.3 89.3 92 87.3 92Z" fill="white"/>
<path d="M106 78.5H103.8C101.8 78.5 100.8 77.6 99.9 76.6C98.3 74.8 96.4 73.4 94.2 72.4C92 71.4 89.7 71 87.3 71H26.1C25.9 71 25.7 71.1 25.5 71.2C25.3 71.3 25.2 71.4 25 71.5C24.9 71.6 24.8 71.8 24.7 72C24.6 72.2 24.5 72.4 24.5 72.6V75.4V82.7C24.5 83.8 23.6 83.4 23.6 85.2V86.2C23.6 87.4 24.3 88.1 25.4 88.1H27.4C27.7 88.1 28.4 87.9 28.4 87.1C28.4 80.9 33.5 75.8 39.5 75.8C45.5 75.8 50.8 80.6 50.8 87.1C50.8 87.7 51.2 88 51.7 88H75C75.6 88 76 87.6 76 87C76 81.1 80.7 75.7 87.3 75.7C93.5 75.7 98.5 80.8 98.5 87C98.5 87.4 98.7 88 99.5 88H106.1C107.1 88 108 87 108 86.1V80.5C107.8 79.2 107.2 78.5 106 78.5Z" fill="white"/>
<path d="M44.9 82.9C43.8 81.8 42.5 81.1 41 80.8C39.5 80.5 38 80.7 36.6 81.2C35.2 81.8 34 82.7 33.2 84C32.4 85.2 31.9 86.7 31.9 88.2C31.9 89.2 32.1 90.2 32.5 91.1C32.9 92 33.4 92.9 34.1 93.6C34.8 94.3 35.6 94.9 36.6 95.2C37.5 95.6 38.5 95.8 39.5 95.8C41 95.8 42.5 95.4 43.7 94.5C44.9 93.7 45.9 92.5 46.5 91.1C47.1 89.7 47.2 88.2 46.9 86.7C46.7 85.3 46 84 44.9 82.9ZM39.6 92C37.6 92 35.9 90.3 35.9 88.3C35.9 86.3 37.6 84.6 39.6 84.6C41.6 84.6 43.4 86.3 43.4 88.3C43.4 90.3 41.6 92 39.6 92Z" fill="white"/>
<path d="M24.9 65.3C25 65.5 25.2 65.6 25.4 65.7C25.6 65.8 25.8 65.8 26 65.8H87.2C92.5 65.7 97.7 67.8 101.5 71.4C102.1 72 102.9 73.3 104.1 73.3H105.3C105.9 73.3 106.1 73 106.1 72.3V63.6C106.1 51.4 98.7 41.6 86.1 36.8C73 31.6 41.8 33.6 29.2 36.9C27.2 37.4 24.5 38.4 24.5 42.2V62.2L24.6 64.1C24.5 64.6 24.7 65 24.9 65.3ZM75.7 44.3C75.7 43.7 75.9 43.3 76.7 43.3H80.6C90 43.3 96.4 49.7 99.9 59.2C100.1 59.7 100 60.5 99 60.5H76.7C76.1 60.5 75.7 59.9 75.7 59.5V44.3ZM52.9 44.3C52.9 44.2 52.9 44 53 43.9C53 43.8 53.1 43.7 53.2 43.6C53.3 43.5 53.4 43.4 53.5 43.4C53.6 43.4 53.7 43.3 53.9 43.3H70.4C71 43.3 71.4 43.7 71.4 44.3V59.4C71.4 59.9 71 60.4 70.4 60.4H53.8C53.3 60.4 52.8 60.2 52.8 59.4V44.3H52.9ZM29.8 44.3C29.8 44.1 29.8 43.3 30.7 43.3H47.6C48.2 43.3 48.6 43.7 48.6 44.2V59.5C48.6 59.8 48.4 60.4 47.6 60.4H30.7C30 60.4 29.8 59.8 29.8 59.4V44.3Z" fill="white"/>
</g>
<defs>
<clipPath id="clip0_293_717">
<rect width="131" height="130" fill="white"/>
</clipPath>
</defs>
</svg>
