<svg width="800" height="800" viewBox="0 0 800 800" fill="none" xmlns="http://www.w3.org/2000/svg">
<g clip-path="url(#clip0_292_715)">
<path d="M371.529 307.951L460.779 217.562C468.597 209.741 477.522 199.705 486.447 188.527C495.372 178.492 505.404 169.564 515.471 161.743C534.428 144.994 556.741 130.494 584.658 130.494C609.219 130.494 630.389 141.672 646.026 156.172C661.663 170.671 670.588 191.884 670.588 216.455C670.588 226.49 669.481 237.668 666.125 245.489C658.307 261.131 651.631 272.274 644.919 281.202C641.564 285.666 638.208 290.13 638.208 294.594C638.208 297.951 638.208 301.308 640.457 302.415C652.738 332.557 661.663 358.234 667.232 389.483C670.588 401.768 677.264 407.339 688.438 407.339C692.9 407.339 697.363 406.232 701.825 402.875C710.75 397.304 718.568 388.375 726.387 379.447C730.849 374.983 734.205 370.519 736.418 368.269C776.581 329.2 800 273.416 800 216.49C800 156.207 775.438 102.638 736.418 63.6043C697.363 25.6417 642.706 0 584.694 0C526.681 0 470.882 23.4275 431.862 64.7471L279.031 216.526C238.868 257.81 216.556 311.379 216.556 368.305C216.556 385.054 223.267 419.66 234.406 452.016C245.58 483.264 260.074 511.156 279.031 511.156C289.062 511.156 310.268 494.406 328.118 475.443C345.968 456.48 363.818 435.266 363.818 427.445C363.818 421.874 359.356 415.16 354.893 405.125C349.324 395.09 347.075 382.804 347.075 368.305C347.075 345.985 356 323.664 371.636 308.022L371.529 307.951ZM368.209 736.503L521.041 584.724C561.203 545.654 583.515 488.728 583.515 431.838C583.515 415.089 576.804 381.626 565.666 349.234C555.634 317.986 539.997 288.951 521.041 288.951C513.222 288.951 489.803 306.808 473.06 325.771C454.103 344.735 436.253 364.841 436.253 372.662C436.253 378.233 439.609 387.161 445.178 396.089C450.747 406.125 455.21 417.303 455.21 431.802C454.103 454.123 445.178 476.443 429.542 494.299L339.185 583.581C331.367 592.509 322.442 601.437 313.517 611.473L285.635 639.364C266.679 657.221 243.224 669.506 215.342 669.506C168.468 669.506 130.555 632.686 130.555 584.688C130.555 573.51 132.804 563.475 136.124 555.654C142.835 540.012 149.511 528.869 157.33 519.941C160.685 515.477 161.792 511.013 161.792 507.656C161.792 505.406 160.685 503.192 159.543 498.728C146.156 468.586 138.337 442.909 132.768 411.66C130.519 406.089 129.412 401.625 126.056 399.375C122.701 394.911 117.132 393.804 111.562 393.804C107.1 393.804 103.744 394.911 99.2815 398.268C90.3565 403.839 81.4316 412.767 73.6133 421.695C70.2575 426.159 65.795 429.516 63.5816 431.731C23.4192 471.907 0 527.726 0 584.617C0 643.757 23.4192 698.469 63.5816 737.503C102.637 776.572 156.187 800 215.306 800C273.319 800 329.118 777.679 368.138 736.396L368.209 736.503Z"
fill="#F3F6ED"/>
</g>
<defs>
<clipPath id="clip0_292_715">
<rect width="800" height="800"/>
</clipPath>
</defs>
</svg>
