<svg width="80" height="80" viewBox="0 0 80 80" fill="none" xmlns="http://www.w3.org/2000/svg">
<rect width="80" height="80" rx="16" fill="url(#paint0_linear_129_753)"/>
<path d="M39.5622 19.12C45.6955 19.12 50.5755 21.04 54.2022 24.88C57.8822 28.72 59.7222 33.7867 59.7222 40.08C59.7222 46.32 57.9089 51.36 54.2822 55.2C50.6555 58.9867 45.7222 60.88 39.4822 60.88C33.2955 60.88 28.3622 58.96 24.6822 55.12C21.0555 51.28 19.2422 46.2667 19.2422 40.08C19.2422 33.8933 21.1089 28.8533 24.8422 24.96C28.5755 21.0667 33.4822 19.12 39.5622 19.12ZM50.1222 28.88C49.2155 26.8533 47.8555 25.2533 46.0422 24.08C44.2822 22.8533 42.1222 22.24 39.5622 22.24C35.1355 22.24 31.8289 23.7067 29.6422 26.64C27.4555 29.5733 26.3622 33.4133 26.3622 38.16C26.3622 43.0667 27.2155 47.4133 28.9222 51.2C29.8289 53.1733 31.1622 54.7733 32.9222 56C34.7355 57.1733 36.8689 57.76 39.3222 57.76C43.8555 57.76 47.1889 56.2933 49.3222 53.36C51.5089 50.4267 52.6022 46.5333 52.6022 41.68C52.6022 36.8267 51.7755 32.56 50.1222 28.88Z" fill="url(#paint1_linear_129_753)"/>
<path d="M42.6585 15.96V54.3C42.6585 58.38 41.9785 61.66 40.6185 64.14C39.2985 66.66 37.4385 68.72 35.0385 70.32C33.2785 71.44 32.1385 72 31.6185 72C31.1385 72 30.8185 71.86 30.6585 71.58C30.3785 71.06 30.2385 70.7 30.2385 70.5C30.2385 70.3 30.3785 70.1 30.6585 69.9C32.6985 68.46 33.9985 67.4 34.5585 66.72C36.5585 64.6 37.5585 61.48 37.5585 57.36V15.96C37.5585 14.52 36.6385 13.72 34.7985 13.56L33.0585 13.38C32.6185 13.3 32.3985 13.04 32.3985 12.6C32.3985 12.04 32.6785 11.76 33.2385 11.76L40.0185 12L45.9585 11.76C46.5585 11.76 46.8585 12 46.8585 12.48C46.8585 13.04 46.5985 13.34 46.0785 13.38L45.0585 13.56C43.4585 13.84 42.6585 14.64 42.6585 15.96Z" fill="black"/>
<path d="M67.3012 58.4C67.3012 58.64 67.2012 58.84 67.0012 59C66.8412 59.16 66.6612 59.24 66.4612 59.24L59.6812 59L53.7412 59.24C53.1812 59.24 52.9012 59 52.9012 58.52C52.9012 58 53.1212 57.7 53.5612 57.62L54.5812 57.5C56.2612 57.3 57.1012 56.48 57.1012 55.04L56.6212 26.66C56.6212 26.26 56.5012 26.06 56.2612 26.06C56.1412 26.06 56.0612 26.12 56.0212 26.24L39.7012 58.88C39.5012 59.24 39.2612 59.42 38.9812 59.42C38.7012 59.42 38.4812 59.24 38.3212 58.88L21.9412 27.2C21.9012 27.08 21.8212 27.02 21.7012 27.02C21.4612 27.02 21.3412 27.22 21.3412 27.62L20.9812 55.04C20.9812 56.36 21.7812 57.16 23.3812 57.44L24.4012 57.62C24.9212 57.7 25.1812 57.98 25.1812 58.46C25.1812 58.94 24.8812 59.18 24.2812 59.18L19.3612 59L13.5412 59.18C12.9812 59.18 12.7012 58.94 12.7012 58.46C12.7012 57.98 12.9212 57.7 13.3612 57.62L15.1012 57.44C16.9412 57.24 17.8612 56.44 17.8612 55.04L18.5812 20.96C18.6212 19.56 17.8212 18.76 16.1812 18.56L15.1012 18.44C14.6212 18.36 14.3812 18.08 14.3812 17.6C14.3812 17.08 14.6812 16.82 15.2812 16.82L20.5612 17C21.9212 17.04 22.7812 17.44 23.1412 18.2L40.1212 51.8L56.6812 18.2C57.0412 17.48 57.9212 17.08 59.3212 17L64.6612 16.82C65.3012 16.82 65.6212 17.08 65.6212 17.6C65.6212 18.08 65.3812 18.36 64.9012 18.44L63.8212 18.56C62.2612 18.68 61.4812 19.48 61.4812 20.96L62.2012 55.04C62.2012 55.76 62.4412 56.34 62.9212 56.78C63.4412 57.18 64.0812 57.42 64.8412 57.5L66.5812 57.62C67.0612 57.62 67.3012 57.88 67.3012 58.4Z" fill="black"/>
<defs>
<linearGradient id="paint0_linear_129_753" x1="40" y1="0" x2="40" y2="80" gradientUnits="userSpaceOnUse">
<stop stop-color="#85A94B"/>
<stop offset="1" stop-color="#495D29"/>
</linearGradient>
<linearGradient id="paint1_linear_129_753" x1="39.5" y1="16" x2="39.5" y2="54" gradientUnits="userSpaceOnUse">
<stop stop-color="#F3DE1D"/>
<stop offset="1" stop-color="#C3853A"/>
</linearGradient>
</defs>
</svg>
