<svg width="800" height="800" viewBox="0 0 800 800" fill="none" xmlns="http://www.w3.org/2000/svg">
<path d="M50.9551 431.372C44.8371 424.61 41.7781 416.721 41.7781 407.705C41.7781 398.689 44.8371 389.834 50.9551 381.14C72.8511 370.836 96.5181 356.99 121.956 339.602C147.716 321.892 169.29 307.885 186.678 297.581C204.066 287.277 219.039 282.125 231.597 282.125C244.155 282.125 253.332 294.039 259.128 317.867C238.52 325.595 208.252 341.534 168.324 365.684C128.718 389.512 105.856 403.036 99.7382 406.256C106.178 409.798 129.04 423.483 168.324 447.311C207.608 470.817 237.876 486.595 259.128 494.645C253.332 518.473 244.155 530.387 231.597 530.387C219.039 530.387 204.066 525.235 186.678 514.931C169.29 504.627 147.716 490.781 121.956 473.393C96.5181 455.683 72.8511 441.676 50.9551 431.372ZM482.331 170.552C485.229 172.806 488.771 178.28 492.957 186.974C497.465 195.346 499.719 205.167 499.719 216.437C499.719 227.385 487.644 262.805 463.494 322.697C439.344 382.589 413.906 447.633 387.18 517.829C360.776 587.703 345.32 639.062 340.812 671.906C338.236 671.906 334.05 670.618 328.254 668.042C322.458 665.466 317.789 662.729 314.247 659.831C310.705 656.933 307.485 652.425 304.587 646.307C301.689 640.189 300.24 633.266 300.24 625.538C300.24 611.048 313.603 572.891 340.329 511.067C367.055 448.921 395.069 382.911 424.371 313.037C453.995 242.841 471.222 193.414 476.052 164.756C477.662 166.044 479.755 167.976 482.331 170.552ZM748.988 381.14C755.106 387.902 758.165 395.791 758.165 404.807C758.165 413.823 755.106 422.678 748.988 431.372C727.092 441.676 703.264 455.683 677.504 473.393C652.066 490.781 630.653 504.627 613.265 514.931C595.877 525.235 580.904 530.387 568.346 530.387C555.788 530.387 546.611 518.473 540.815 494.645C561.423 486.917 591.53 471.139 631.136 447.311C671.064 423.161 694.087 409.476 700.205 406.256C693.765 402.714 670.903 389.19 631.619 365.684C592.335 341.856 562.067 325.917 540.815 317.867C546.611 294.039 555.788 282.125 568.346 282.125C580.904 282.125 595.877 287.277 613.265 297.581C630.653 307.885 652.066 321.892 677.504 339.602C703.264 356.99 727.092 370.836 748.988 381.14Z" fill="black"/>
</svg>
